<svg enable-background="new 0 0 32 32" viewBox="0 0 32 32" xmlns="http://www.w3.org/2000/svg"><path d="m24 31.36h-14c-.199 0-.36-.161-.36-.36v-5c0-.199.161-.36.36-.36h10.64v-2.14c0-.904-.735-1.64-1.64-1.64h-4c-1.301 0-2.36-1.059-2.36-2.36v-2.14h-2.64c-.199 0-.36-.161-.36-.36v-5c0-.199.161-.36.36-.36h14c.199 0 .36.161.36.36v5c0 .199-.161.36-.36.36h-10.64v2.14c0 .904.736 1.64 1.64 1.64h4c1.302 0 2.36 1.059 2.36 2.36v2.14h2.64c.199 0 .36.161.36.36v5c0 .199-.161.36-.36.36zm-13.64-.72h13.28v-4.28h-13.28zm0-14h13.28v-4.28h-13.28zm3.64 12.22h-2v-.72h2zm12.001-9.5v-.72c2.818 0 4.639-1.488 4.639-3.793 0-2.432-1.949-4.487-4.257-4.487-.199 0-.36-.161-.36-.36 0-4.845-3.896-8.64-8.868-8.64-3.084 0-6.161 1.931-7.84 4.918-.076.133-.224.203-.376.179-.373-.064-.75-.097-1.118-.097-3.684 0-6.461 2.657-6.461 6.179 0 3.478 2.855 6.101 6.641 6.101v.721c-4.196 0-7.36-2.933-7.36-6.821 0-3.933 3.087-6.899 7.181-6.899.327 0 .659.023.991.068 1.83-3.087 5.078-5.068 8.342-5.068 5.258 0 9.401 3.932 9.582 9.014 2.541.197 4.624 2.495 4.624 5.193-.001 2.741-2.104 4.512-5.36 4.512zm-12.001-4.5h-2v-.72h2z"/><path d="m0 0h32v32h-32z" fill="none"/></svg>