<svg enable-background="new 0 0 1024 1024" height="1024" image-rendering="optimizeSpeed" viewBox="0 0 1024 1024" width="1024" xmlns="http://www.w3.org/2000/svg"><path d="m969.65 351.3q-8.6-20.85-19.4-40.85c-4.05-7.55-8.35-15.05-12.9-22.4-19.55-31.7-43.4-61.65-71.55-89.8-92.15-92.15-203.45-138.25-333.8-138.25s-241.6 46.1-333.75 138.25-138.25 203.4-138.25 333.75 46.1 241.65 138.25 333.8 203.4 138.2 333.75 138.2 241.65-46.05 333.8-138.2c50.75-50.8 87.55-107.4 110.35-169.75 18.55-50.85 27.85-105.5 27.85-164.05 0-44.9-5.45-87.55-16.4-127.95-1.25-4.55-2.55-9.1-3.9-13.6-4.1-13.3-8.8-26.35-14.05-39.15z" fill-opacity=".098039"/><path d="m966.1 378.45c-1-3.4-2-6.85-3.15-10.5-1.6-5.15-3.4-10.5-5.3-15.85-6.45-18.25-14.15-36.05-23.15-53.65-3.8-7.4-7.95-14.95-12.3-22.4-20.3-34.5-45.8-67.2-76.35-97.75-72.6-72.6-157.15-116.65-253.65-132.05-16.25-2.6-32.8-4.4-50.05-5.35-9.7-.55-19.85-.85-30.1-.85-9.35 0-18.6.25-27.9.75-118.35 6.1-220.3 51.95-305.85 137.5q-138.25 138.25-138.25 333.75c0 130.35 46.1 241.65 138.25 333.8 56.7 56.65 120.55 95.9 191.1 117.55 36.75 11.25 74.8 17.85 114.75 19.95h.4c8.5.45 16.6.7 24.5.7h3c10.3 0 20.5-.3 30.1-.8 2.5-.15 4.75-.3 6.95-.45 20.2-1.45 39.9-4.05 58.7-7.7 7.95-1.55 15.8-3.3 23.4-5.15 80.8-20.3 152.15-61.6 214.65-124.1 48.6-48.6 84.4-102.5 107.35-161.8 18.45-47.65 28.65-98.8 30.55-153.5.2-6.05.3-12.25.3-18.5 0-.65 0-1.35 0-2 0-.35 0-.65 0-1-.2-40.65-4.95-79.5-14.3-117-1.1-4.35-2.35-9-3.65-13.6z" fill="#eee"/><path d="m953.2 684.05c1.6-4.1 3.15-8.2 4.6-12.35l-.025-.025-274.625-274.625-244.275-100.65-152.975 33.05 65.6 65.6-65.6 94.25 61.65 61.65-53.5 202 230.95 230.95q8.643-.192 17.15-.65c2.5-.15 4.75-.3 6.95-.45 20.2-1.45 39.9-4.05 58.7-7.7 7.95-1.55 15.8-3.3 23.4-5.15 80.8-20.3 152.15-61.6 214.65-124.1 48.6-48.6 84.4-102.5 107.35-161.8zm30.85-174c0-.35 0-.65 0-1 0-4.65-.1-9.25-.25-14.1h-.025l-230.875-230.9 25.2 135.2 198.8 198.8c3.75-21.75 6.05-44.3 6.85-67.5.2-6.05.3-12.25.3-18.5 0-.65 0-1.35 0-2z" fill-opacity=".098039"/><path d="m778.1 320.25c0-41.55-33.85-75.35-75.35-75.35h-79.05c62.1 39.4 115.05 92.25 154.4 154.35zm-.35 345.85v-4.95c.35-229.35-186.25-415.95-416.2-415.95h-8.95c-37.5 4.6-66.7 36.3-66.7 75.05v9.2c24.25-5.55 49.85-8.65 75.65-8.65 188.1 0 340.3 152.55 340.3 340.35 0 25.85-2.75 51-8.35 75.3h8.95c39.95 0 72.85-31 75.3-70.35zm-491.85-258.25v81.45c23.05-10.15 48.85-15.95 75.65-15.95 103.9 0 188.1 84.2 188.1 188.15 0 26.7-5.5 52.2-15.65 75.3h81.45c7.05-24 10.75-49.25 10.75-75.3.35-146.05-118.35-264.75-264.65-264.75-26.45 0-51.65 4.05-75.65 11.1z" fill="#449b45"/><path d="m361.55 548.3c-62.7 0-113.4 50.8-113.4 113.45s50.7 113.4 113.4 113.4c62.65 0 113.45-50.75 113.45-113.4q0-23.05-8.95-44.15-8.6-20.35-24.3-36.05-15.7-15.7-36.1-24.35-21.05-8.9-44.1-8.9z" fill="#1f4821"/></svg>