<svg height="48pt" viewBox="0 0 48 48" width="48pt" xmlns="http://www.w3.org/2000/svg" xmlns:xlink="http://www.w3.org/1999/xlink"><linearGradient id="a" gradientTransform="matrix(47 0 0 47.02 .5 .49)" gradientUnits="userSpaceOnUse" x1="0" x2=".907488" y1=".5" y2=".920078"><stop offset="0" stop-color="#00c4ff"/><stop offset=".83888397938" stop-color="#0072ff"/></linearGradient><path d="m17 46.01c3.235-8.997 8.421-21.945 11.569-30.777.032-.066.053-.234.084-.302v-.002c2.07.022 4.194.04 6.264.043.677.015 1.34-.075 2 .131.759.206 1.463.794 1.694 1.567.174.604.042 1.242-.174 1.824-1.319 3.85-2.68 7.647-4.041 11.479-.341.999-1.888 1.615-2.913 1.651-1.616.032-3.219.015-4.832.047-1.295 3.61-3.181 7.944-4.61 11.73.651.077 1.306.109 1.959.109 5.17 0 10.13-2.06 13.79-5.71 3.65-3.66 5.71-8.62 5.71-13.79 0-4.16-1.33-8.22-3.8-11.57-2.46-3.35-5.94-5.82-9.91-7.06-1.054-.326-1.646-1.446-1.32-2.5.326-1.054 1.446-1.646 2.5-1.32 4.79 1.49 8.98 4.47 11.95 8.51 2.98 4.04 4.58 8.93 4.58 13.94 0 6.23-2.48 12.21-6.88 16.62-4.41 4.4-10.39 6.88-16.62 6.88-1.4 0-2.8-.12-4.18-.37-1.148-.219-2.078-.586-2.82-1.13zm.728-40.454c-2.908 8.338-5.827 17.425-8.728 25.463.216.063.429.037.653.041 1.229-.008 2.464.003 3.697 0 .167 0 .146-.242.217-.348 1.482-4.183 2.987-8.344 4.477-12.523.089-.259.187-.536.304-.784.773.015 1.536-.011 2.305 0-1.616 4.534-3.227 9.095-4.871 13.614.173.067.345.037.525.041 1.291-.011 2.577.018 3.868 0 1.46-4.119 2.969-8.231 4.437-12.351.312-.84.357-1.917-.176-2.607-1.13-1.465-3.639-1.709-5.261-1.77 1.183-3.351 2.41-6.466 3.611-9.892l1.214-3.95c-1.176.023-2.416.117-3.69.31-5.53.88-10.56 3.7-14.19 7.95-3.63 4.26-5.62 9.67-5.62 15.26 0 7.56 3.66 14.68 9.8 19.09.894.646 2.144.442 2.79-.455.646-.897.44-2.149-.46-2.795-5.09-3.66-8.13-9.56-8.13-15.84 0-4.64 1.65-9.13 4.66-12.66 2.297-2.685 5.26-4.682 8.568-5.794zm14.818 11.802c.065.007.131.017.195.008.599.011 1.188-.014 1.783 0-1.389 3.967-2.803 7.936-4.172 11.915-.776.053-1.574.003-2.351 0 1.414-3.943 2.808-7.883 4.219-11.833.031-.035.088-.075.13-.086v.004c.064-.019.13-.015.196-.008z" fill="url(#a)" fill-rule="evenodd"/></svg>